<svg width="60" height="30" viewBox="0 0 60 30" fill="none" xmlns="http://www.w3.org/2000/svg">
<path opacity="0.9" fill-rule="evenodd" clip-rule="evenodd" d="M12.4291 0.983984L19.7754 0V22.1531C19.7754 23.6417 20.1124 24.3989 21.5812 24.3989C22.9148 24.3989 23.5314 23.47 23.8069 22.7444V8.88136L31.4901 7.92261V12.0607C31.4901 12.0607 33.2532 7.6703 37.7878 7.6703C40.9792 7.6703 42.6165 9.53735 43.0793 11.9342C43.0793 11.9342 44.7165 7.6703 49.251 7.6703C53.197 7.6703 55.0884 10.1933 55.0884 14.2052C55.0884 15.4983 54.9115 16.9227 54.7338 18.3537C54.5543 19.7987 54.374 21.2508 54.374 22.582C54.374 23.7678 54.9626 24.4238 56.2226 24.4238C58.4056 24.4238 58.9513 21.9005 58.9513 21.9005C58.9513 21.9005 60 22.2792 60 24.3989C60 27.4265 57.0198 29.9495 53.3252 29.9495C49.251 29.9495 46.7738 27.376 46.7738 23.0866C46.7738 21.929 46.9308 20.6774 47.0881 19.4224C47.2464 18.1607 47.405 16.8956 47.405 15.7191C47.405 14.4071 46.8165 13.852 45.7652 13.852C44.3393 13.852 43.2478 14.9622 43.2478 17.2329V29.4951H35.5218V15.7191C35.5218 14.4575 34.9332 13.852 33.9247 13.852C32.4987 13.852 31.533 14.9622 31.533 17.2329V29.4951H23.8069V27.9009C22.7233 29.1424 21.0094 29.9495 18.9354 29.9495C15.2837 29.9495 13.7722 27.8551 13.1007 25.7863C13.1007 25.7863 11.7149 30 7.18036 30C1.93162 30 0 24.9789 0 19.8824C0 13.2717 3.82024 8.17491 10.2435 8.17491C11.1263 8.17491 11.8406 8.2506 12.4291 8.37676V0.983984ZM9.82352 24.2724C11.252 24.2724 12.3008 23.0109 12.4291 20.4374V12.8173C12.1348 12.7164 11.755 12.6914 11.3375 12.6914C8.64904 12.6914 7.26325 15.7191 7.26325 19.3021C7.26325 22.582 8.14606 24.2724 9.82352 24.2724Z" fill="#F4F4F4"/>
</svg>
